# xmcd
#
# Track frame offsets:
#	150
#	10422
#	32237
#	55760
#	80896
#	97318
#	110452
#	123203
#	141578
#
# Disc length: 2109 seconds
#
# Revision: 0
# Processed by: cddbd v1.5.2PL0 Copyright (c) Steve Scherf et al.
# Submitted via: audiograbber 1.83.01
#
DISCID=81083b09
DTITLE=John-F. Klaver Trio - Jetpepper
DYEAR=2008
DGENRE=Blues
TTITLE0=Call My Name (acoustic)
TTITLE1=Ear To the Ground
TTITLE2=Mac and Cheese
TTITLE3=All My Work Is Done
TTITLE4=I Don't Need No Doctor
TTITLE5=Lovin' Woman
TTITLE6=Jetpepper
TTITLE7=Call My Name
TTITLE8=Politicians
EXTD=
EXTT0=
EXTT1=
EXTT2=
EXTT3=
EXTT4=
EXTT5=
EXTT6=
EXTT7=
EXTT8=
PLAYORDER=
